/* XPM */
static char *nmapfe[]={
"32 32 195 2",
"Qt c None",
"#V c #59575e",
"#I c #5a585f",
"#s c #5c5b61",
"ao c #5f5d63",
"ab c #5f5e63",
"aa c #605e64",
"#i c #605f64",
"ap c #636267",
"#c c #656469",
"#y c #66666a",
"#p c #6a686d",
"#x c #6a696e",
"an c #6b6a6f",
"#U c #6e6c71",
"aU c #717074",
"aZ c #726f73",
"a5 c #727074",
"aQ c #727174",
"aJ c #737175",
"ak c #747277",
"aq c #747377",
"am c #747478",
"a8 c #757175",
"aE c #757378",
".9 c #75737a",
"aj c #767478",
"#H c #76757a",
"ba c #777377",
"av c #78767a",
"al c #79787d",
"#2 c #7a797d",
"#o c #7a797e",
"#0 c #7d7a7d",
"ah c #7d7c7f",
"ag c #7e7b7e",
".R c #7e7c81",
"au c #7e7d7e",
"#1 c #7e7d80",
"#W c #7e7e81",
"aD c #7f7d80",
".5 c #7f7d82",
".W c #7f7d83",
"#. c #7f7e81",
"#3 c #7f7f81",
"a# c #807e81",
".6 c #807f82",
".0 c #817f85",
"aI c #827f81",
"#t c #828184",
"#N c #838184",
"#d c #838285",
"aP c #858283",
"a9 c #858486",
".1 c #858487",
"ax c #868688",
"ay c #878789",
"#J c #888789",
"ai c #888889",
".N c #89888c",
"a0 c #89898b",
"b# c #8a8889",
"aT c #8a888a",
"aV c #8c8b8d",
"a7 c #8d898b",
"ar c #8e8d8e",
"#j c #8f8e8f",
"aw c #8f8f90",
"aY c #908d8f",
".X c #908f91",
"az c #919192",
".H c #929097",
".E c #929194",
"aK c #929293",
".A c #959498",
"#z c #959595",
"a4 c #969395",
".I c #979697",
".S c #979797",
"#k c #989899",
".2 c #999999",
"#e c #99999b",
".j c #9a9a9a",
".s c #9c9b9d",
".w c #9c9b9f",
".# c #9c9c9c",
".J c #9f9f9f",
".B c #9f9fa0",
"aL c #a2a2a2",
"aF c #a4a3a4",
".i c #a4a3a5",
"## c #a4a3a7",
"#4 c #a4a4a5",
"#A c #a5a4a5",
"aA c #a5a5a5",
"ac c #a6a6a6",
"#X c #a7a6a7",
"#K c #a8a8a8",
".O c #a9a8aa",
".k c #a9a9aa",
"#O c #a9a9ab",
"#h c #aaa8ab",
".x c #acabac",
"#r c #b2b0b3",
".M c #b2b0b4",
".7 c #b2b1b4",
"#l c #b2b1b5",
".t c #b2b2b3",
".a c #b3b3b4",
"a. c #b4b2b4",
".T c #b4b3b6",
"#u c #b6b4b8",
".D c #bbbabe",
".Y c #bbbbbe",
".F c #bcbbbe",
"b. c #bcbcbc",
".r c #bcbcbf",
".3 c #bdbbbf",
"#T c #bfbec1",
"#5 c #bfbfc0",
".h c #c2c2c4",
"#M c #c3c1c3",
"a1 c #c5c4c5",
"#b c #cdcccd",
".Q c #cecdcf",
"#9 c #d0d0d0",
"#P c #d1d1d1",
".b c #d2d1d2",
"#6 c #d3d3d3",
"#Z c #d4d2d3",
"#w c #d5d4d5",
".l c #d5d4d6",
".v c #d6d5d8",
"#B c #d6d6d7",
"aR c #d8d7d8",
".z c #d8d8dc",
"#7 c #dadada",
"#G c #dadadb",
"aM c #dbdadb",
"#8 c #dbdbdb",
"af c #dcdbdb",
"aG c #dedddd",
".K c #dfdfe0",
"aB c #e0dfe0",
".g c #e0dfe2",
".C c #e0e0e2",
"as c #e1dfe0",
"ad c #e1dfe1",
".V c #e1e1e2",
"#q c #e1e1e3",
"#L c #e2e1e2",
".8 c #e2e2e2",
"#C c #e3e3e6",
"#f c #e4e2e5",
"#Y c #e4e3e4",
"#n c #e4e4e4",
"at c #e6e3e4",
".c c #e6e6e7",
".4 c #e8e8e8",
"#Q c #e9e9e9",
".Z c #e9eaea",
"#S c #ebebeb",
".q c #ebebec",
"aC c #edebec",
".u c #ededee",
".G c #eeeeef",
".f c #efefef",
".d c #efeff0",
"#D c #f0f0f0",
".y c #f0f0f1",
"a6 c #f1eff1",
"aH c #f1f0f0",
".e c #f1f0f1",
"aO c #f3f1f2",
"aS c #f4f3f4",
"#g c #f4f4f4",
"#m c #f5f5f5",
".m c #f5f5f6",
"aX c #f6f5f5",
"#R c #f6f6f6",
"a3 c #f7f6f6",
"#F c #f7f7f7",
"#E c #f8f8f8",
"#v c #f9f9fa",
"#a c #f9fafa",
".L c #fafafa",
"a2 c #fbfafb",
".p c #fcfcfc",
".U c #fcfcfd",
"aW c #fdfcfc",
".P c #fdfdfd",
"aN c #fefdfd",
"ae c #fefefd",
".n c #fefefe",
".o c #ffffff",
"QtQtQtQtQtQtQtQtQtQtQtQtQtQtQtQtQtQtQtQtQtQtQtQtQtQtQtQtQtQtQtQt",
"QtQtQtQtQtQtQtQtQtQtQtQtQtQtQt.#.a.b.c.d.e.f.g.h.i.jQtQtQtQtQtQt",
"QtQtQtQtQtQtQtQtQtQtQtQtQtQt.k.l.m.n.o.o.o.o.o.p.q.r.sQtQtQtQtQt",
"QtQtQtQtQtQtQtQtQtQtQtQtQt.t.u.o.o.o.o.o.o.o.o.o.o.o.v.wQtQtQtQt",
"QtQtQtQtQtQtQtQtQtQtQtQt.x.y.o.o.o.o.o.o.o.o.o.o.o.o.o.z.AQtQtQt",
"QtQtQtQtQtQtQtQtQtQtQt.B.C.o.o.o.o.o.o.o.o.o.o.o.o.o.o.o.D.EQtQt",
"QtQtQtQtQtQtQtQtQtQtQt.F.n.o.o.o.o.o.o.o.o.o.o.o.o.o.o.o.G.H.IQt",
"QtQtQtQtQtQtQtQtQtQt.J.K.o.o.o.o.o.o.o.o.o.o.o.o.o.o.o.o.L.M.NQt",
"QtQtQtQtQtQtQtQtQtQt.O.m.o.o.o.o.o.o.o.o.o.o.o.o.o.o.o.o.P.Q.R.S",
"QtQtQtQtQtQtQtQtQtQt.T.U.o.o.o.o.o.o.o.o.o.o.o.o.o.o.o.o.n.V.W.X",
"QtQtQtQtQtQtQtQtQtQt.Y.o.o.o.o.o.o.o.o.o.o.o.o.o.o.o.o.o.n.Z.0.1",
"QtQtQtQtQtQtQtQtQt.2.3.o.o.o.o.o.o.o.o.o.o.o.o.o.o.o.o.o.n.4.5.6",
"QtQtQtQtQtQtQtQtQtQt.7.n.o.n.o.o.o.o.o.o.o.o.o.o.o.o.o.o.P.8.9#.",
"QtQtQtQtQtQtQtQtQtQt###a.o.n.o.o.o.o.o.o.o.o.o.o.o.o.o.o.L#b#c#d",
"QtQtQtQtQtQtQtQtQtQt#e#f.o.P.n.o.o.o.o.o.o.o.o.o.o.o.o.n#g#h#i#j",
"QtQtQtQtQtQtQtQtQtQt#k#l#m.L.n.o.o.o.o.o.o.o.o.o.o.o.o.P#n#o#p.S",
"QtQtQtQtQtQtQtQtQtQtQt.A#q.P.n.o.o.o.o.o.o.o.o.o.o.o.n#g#r#s#tQt",
"QtQtQtQtQtQtQtQtQtQtQtQt#u#v.o.o.o.o.o.o.o.o.o.o.o.n.L#w#x#y#zQt",
"QtQtQtQtQtQtQtQtQtQtQt#A#B#C.f#D#E.P.n.o.o.o.o.o.P#F#G#H#I#JQtQt",
"QtQtQtQtQtQtQtQtQtQt#K#L.n#M#N#O#P#Q#R.p.n.n.P#E#S#T#U#V#WQtQtQt",
"QtQtQtQtQtQtQtQtQt#X#Y.n#Z#0#1#2#3#4#5#6#7#8#9a.a#aaab#tQtQtQtQt",
"QtQtQtQtQtQtQtQtacadaeafagahQtQtaiajak#HalamanaoapaqarQtQtQtQtQt",
"QtQtQtQtQtQtQtacasaeatauav.SQtQtQtQtawax#3ah#.ayazQtQtQtQtQtQtQt",
"QtQtQtQtQtQtaAaBaeaCaDaE#zQtQtQtQtQtQtQtQtQtQtQtQtQtQtQtQtQtQtQt",
"QtQtQtQtQtaFaGaeaHaIaJaKQtQtQtQtQtQtQtQtQtQtQtQtQtQtQtQtQtQtQtQt",
"QtQtQtQtaLaMaNaOaPaQawQtQtQtQtQtQtQtQtQtQtQtQtQtQtQtQtQtQtQtQtQt",
"QtQtQt.JaR.PaSaTaUaVQtQtQtQtQtQtQtQtQtQtQtQtQtQtQtQtQtQtQtQtQtQt",
"QtQt.#.baWaXaYaZa0QtQtQtQtQtQtQtQtQtQtQtQtQtQtQtQtQtQtQtQtQtQtQt",
"QtQta1a2a3a4a5axQtQtQtQtQtQtQtQtQtQtQtQtQtQtQtQtQtQtQtQtQtQtQtQt",
"QtQta6aHa7a8a9QtQtQtQtQtQtQtQtQtQtQtQtQtQtQtQtQtQtQtQtQtQtQtQtQt",
"QtQtb.b#ba.1QtQtQtQtQtQtQtQtQtQtQtQtQtQtQtQtQtQtQtQtQtQtQtQtQtQt",
"QtQtQtQtQtQtQtQtQtQtQtQtQtQtQtQtQtQtQtQtQtQtQtQtQtQtQtQtQtQtQtQt"};
